<?xml version="1.0" encoding="UTF-8" standalone="no"?>
<!-- Created with Inkscape (http://www.inkscape.org/) -->

<svg
   version="1.1"
   id="svg2"
   width="741.63867"
   height="114.41747"
   viewBox="0 0 741.63867 114.41747"
   sodipodi:docname="logo (1).ai"
   xmlns:inkscape="http://www.inkscape.org/namespaces/inkscape"
   xmlns:sodipodi="http://sodipodi.sourceforge.net/DTD/sodipodi-0.dtd"
   xmlns="http://www.w3.org/2000/svg"
   xmlns:svg="http://www.w3.org/2000/svg">
  <defs
     id="defs6">
    <clipPath
       clipPathUnits="userSpaceOnUse"
       id="clipPath16">
      <path
         d="M 0,85.813 H 556.229 V 0 H 0 Z"
         id="path14" />
    </clipPath>
  </defs>
  <sodipodi:namedview
     id="namedview4"
     pagecolor="#ffffff"
     bordercolor="#000000"
     borderopacity="0.25"
     inkscape:showpageshadow="2"
     inkscape:pageopacity="0.0"
     inkscape:pagecheckerboard="0"
     inkscape:deskcolor="#d1d1d1" />
  <g
     id="g8"
     inkscape:groupmode="layer"
     inkscape:label="logo (1)"
     transform="matrix(1.3333333,0,0,-1.3333333,0,114.41747)">
    <g
       id="g10">
      <g
         id="g12"
         clip-path="url(#clipPath16)">
        <g
           id="g18"
           transform="translate(0,55.8772)">
          <path
             d="m 0,0 c 2.497,0.318 3.975,-0.442 4.957,-2.496 0.378,-0.792 0.75,-1.671 0.793,-2.528 0.188,-3.782 0.314,-14.876 0.354,-18.661 0.091,-8.623 8.489,-16.115 17.157,-15.124 0,0.976 0.003,1.969 0,2.962 -0.022,6.914 0.125,21.143 -0.123,28.049 C 22.941,-2.314 20.053,1.585 14.907,3.363 9.496,5.233 4.525,4.246 0,0 m 23.956,0.021 c 2.296,0.334 3.989,-0.407 4.768,-2.483 0.632,-1.683 1.071,-3.539 1.116,-5.331 0.145,-5.801 0.117,-26.223 0.063,-32.026 -0.048,-5.158 1.756,-9.361 5.956,-12.358 3.342,-2.384 7.069,-3.616 11.225,-3.7 0.05,0.417 0.097,0.632 0.098,0.848 0.012,10.436 0.059,35.487 0.003,45.923 -0.015,2.758 -0.66,5.423 -2.254,7.749 -4.658,6.802 -14.743,7.538 -20.975,1.378 m 47.052,-46.644 c 0,1.095 -10e-4,2.028 0.001,2.961 0.012,11.332 0.066,22.664 0.022,33.996 C 71.009,-3.929 68.914,0.655 63.429,3.078 58.067,5.447 51.142,4.07 47.883,0.026 c 2.336,0.327 3.893,-0.364 4.71,-2.61 0.632,-1.738 1.041,-3.655 1.078,-5.503 0.152,-7.589 0.193,-15.181 0.137,-22.772 -0.038,-5.133 1.791,-9.241 5.949,-12.183 3.308,-2.341 6.97,-3.628 11.251,-3.581"
             style="fill:#5b91ca;fill-opacity:1;fill-rule:nonzero;stroke:none"
             id="path20" />
        </g>
        <g
           id="g22"
           transform="translate(21.1375,77.4821)">
          <path
             d="m 0,0 c 0,-4.601 -3.677,-8.331 -8.213,-8.331 -4.536,0 -8.213,3.73 -8.213,8.331 0,4.601 3.677,8.331 8.213,8.331 C -3.677,8.331 0,4.601 0,0"
             style="fill:#5b91ca;fill-opacity:1;fill-rule:nonzero;stroke:none"
             id="path24" />
        </g>
        <g
           id="g26"
           transform="translate(44.9234,77.4821)">
          <path
             d="m 0,0 c 0,-4.601 -3.677,-8.331 -8.213,-8.331 -4.536,0 -8.213,3.73 -8.213,8.331 0,4.601 3.677,8.331 8.213,8.331 C -3.677,8.331 0,4.601 0,0"
             style="fill:#5b91ca;fill-opacity:1;fill-rule:nonzero;stroke:none"
             id="path28" />
        </g>
        <g
           id="g30"
           transform="translate(68.7092,77.4821)">
          <path
             d="m 0,0 c 0,-4.601 -3.677,-8.331 -8.213,-8.331 -4.536,0 -8.213,3.73 -8.213,8.331 0,4.601 3.677,8.331 8.213,8.331 C -3.677,8.331 0,4.601 0,0"
             style="fill:#5b91ca;fill-opacity:1;fill-rule:nonzero;stroke:none"
             id="path32" />
        </g>
        <g
           id="g34"
           transform="translate(95.1558,32.1051)">
          <path
             d="m 0,0 -15.837,9.779 c -1.825,1.126 -1.825,3.813 0,4.94 L 0,24.497 C 1.899,25.67 4.333,24.283 4.333,22.028 V 2.47 C 4.333,0.214 1.899,-1.173 0,0"
             style="fill:#5b91ca;fill-opacity:1;fill-rule:nonzero;stroke:none"
             id="path36" />
        </g>
        <g
           id="g38"
           transform="translate(168.7646,61.8559)">
          <path
             d="m 0,0 c 1.51,-0.886 3.338,-1.329 5.485,-1.329 2.097,0 3.926,0.443 5.486,1.329 1.559,0.886 2.34,2.589 2.34,5.111 0,2.596 -0.781,4.33 -2.34,5.204 -1.56,0.874 -3.389,1.311 -5.486,1.311 C 3.338,11.626 1.51,11.189 0,10.315 -1.139,9.657 -1.847,8.508 -2.127,6.871 h -13.407 l -7.601,-27.895 c -0.3,-1.049 -0.617,-2.378 -0.955,-3.988 -0.337,-1.61 -0.642,-3.214 -0.917,-4.811 -0.275,-1.598 -0.462,-2.908 -0.562,-3.932 -0.075,1.024 -0.268,2.346 -0.58,3.969 -0.312,1.622 -0.649,3.251 -1.011,4.887 -0.362,1.634 -0.68,2.976 -0.955,4.024 L -35.566,6.871 H -52.19 l 17.86,-54.742 h 17.411 L -0.973,0.8 C -0.694,0.485 -0.37,0.217 0,0"
             style="fill:#231f20;fill-opacity:1;fill-rule:nonzero;stroke:none"
             id="path40" />
        </g>
        <g
           id="g42"
           transform="translate(286.7881,29.1684)">
          <path
             d="m 0,0 c -0.412,-1.661 -1.067,-2.921 -1.966,-3.782 -0.898,-0.862 -2.11,-1.292 -3.632,-1.292 -1.523,0 -2.752,0.43 -3.688,1.292 -0.936,0.861 -1.616,2.121 -2.041,3.782 -0.424,1.659 -0.636,3.7 -0.636,6.122 0,3.619 0.493,6.352 1.479,8.2 0.986,1.847 2.589,2.77 4.811,2.77 1.548,0 2.777,-0.411 3.689,-1.235 C -1.074,15.033 -0.412,13.81 0,12.188 0.412,10.564 0.618,8.542 0.618,6.122 0.618,3.7 0.412,1.659 0,0 m -50.299,11.289 c 0.199,2.321 0.88,4.025 2.041,5.111 1.16,1.086 2.602,1.629 4.324,1.629 1.348,0 2.477,-0.3 3.389,-0.899 0.911,-0.599 1.604,-1.411 2.078,-2.434 0.474,-1.024 0.724,-2.159 0.749,-3.407 z M -78.293,4.662 c -0.075,-3.047 -0.593,-5.311 -1.554,-6.797 -0.961,-1.485 -2.615,-2.227 -4.961,-2.227 -1.822,0 -3.314,0.804 -4.474,2.415 -1.161,1.61 -1.741,4.175 -1.741,7.695 0,3.569 0.574,6.202 1.722,7.9 1.148,1.697 2.596,2.546 4.343,2.546 2.571,0 4.325,-0.893 5.261,-2.677 0.936,-1.785 1.404,-4.35 1.404,-7.695 z m 91.098,13.367 c -1.81,3.244 -4.3,5.716 -7.47,7.413 -3.17,1.698 -6.79,2.546 -10.858,2.546 -4.418,0 -8.219,-0.848 -11.401,-2.546 -3.183,-1.697 -5.629,-4.169 -7.339,-7.413 -0.401,-0.761 -0.75,-1.565 -1.057,-2.405 -0.388,1.363 -0.898,2.617 -1.54,3.752 -1.623,2.871 -3.931,5.024 -6.927,6.459 -2.995,1.436 -6.552,2.153 -10.671,2.153 -4.169,0 -7.825,-0.792 -10.971,-2.377 -3.145,-1.586 -5.592,-4.02 -7.339,-7.301 -0.906,-1.703 -1.572,-3.655 -2.008,-5.844 V 43.078 H -79.528 V 31.732 c 0,-1.796 0.074,-3.638 0.224,-5.522 0.15,-1.885 0.312,-3.364 0.487,-4.437 h -0.3 c -0.748,1.173 -1.628,2.227 -2.639,3.164 -1.011,0.936 -2.203,1.678 -3.576,2.228 -1.373,0.548 -3.008,0.823 -4.905,0.823 -4.593,0 -8.337,-1.86 -11.233,-5.579 -1.887,-2.423 -3.147,-5.607 -3.804,-9.525 v 14.355 h -14.64 v -42.423 h 14.64 v 14.211 c 0.644,-3.842 1.869,-6.977 3.692,-9.381 2.82,-3.719 6.415,-5.579 10.783,-5.579 1.947,0 3.638,0.276 5.074,0.825 1.435,0.548 2.658,1.285 3.669,2.209 1.011,0.922 1.854,1.947 2.528,3.07 h 0.561 l 3.146,-5.355 h 11.045 v 14.652 c 0.48,-2.28 1.236,-4.3 2.29,-6.039 1.934,-3.196 4.586,-5.555 7.956,-7.077 3.37,-1.523 7.189,-2.285 11.458,-2.285 3.694,0 6.752,0.25 9.173,0.749 2.421,0.499 4.655,1.286 6.702,2.36 v 10.521 c -2.346,-1.098 -4.624,-1.91 -6.833,-2.434 -2.209,-0.524 -4.637,-0.786 -7.283,-0.786 -2.995,0 -5.26,0.711 -6.795,2.134 -1.536,1.423 -2.366,3.244 -2.491,5.467 h 24.043 c 0.249,-1.935 0.66,-3.745 1.282,-5.392 1.036,-2.747 2.503,-5.055 4.399,-6.927 1.897,-1.872 4.125,-3.289 6.684,-4.25 2.559,-0.96 5.373,-1.442 8.443,-1.442 3.295,0 6.253,0.482 8.874,1.442 2.622,0.961 4.855,2.378 6.703,4.25 1.847,1.872 3.257,4.18 4.231,6.927 0.973,2.746 1.46,5.891 1.46,9.436 0,4.692 -0.906,8.661 -2.715,11.907"
             style="fill:#231f20;fill-opacity:1;fill-rule:nonzero;stroke:none"
             id="path44" />
        </g>
        <g
           id="g46"
           transform="translate(360.0674,68.7265)">
          <path
             d="m 0,0 -10.372,-26.21 c -0.549,-1.423 -1.142,-3.027 -1.778,-4.811 -0.637,-1.785 -1.243,-3.551 -1.816,-5.298 -0.575,-1.748 -1.061,-3.283 -1.461,-4.606 h -0.299 c 0.15,1.798 0.249,3.806 0.299,6.029 0.05,2.221 0.075,3.968 0.075,5.241 V 0 h -12.581 l -12.543,-28.906 c -0.798,-1.822 -1.61,-3.757 -2.433,-5.803 -0.824,-2.047 -1.498,-3.919 -2.023,-5.617 h -0.298 c 0.199,1.698 0.355,3.72 0.467,6.066 0.113,2.346 0.181,4.618 0.206,6.815 L -44.183,0 h -13.853 l 1.835,-54.742 h 16.25 l 8.425,19.846 c 0.948,2.221 1.846,4.461 2.695,6.72 0.849,2.259 1.66,4.574 2.434,6.946 h 0.336 c -0.099,-1.373 -0.186,-2.771 -0.261,-4.193 -0.075,-1.423 -0.131,-2.834 -0.169,-4.232 -0.037,-1.398 -0.056,-2.758 -0.056,-4.081 V -54.742 H -9.286 L 14.49,0 Z"
             style="fill:#5a91ca;fill-opacity:1;fill-rule:nonzero;stroke:none"
             id="path48" />
        </g>
        <g
           id="g50"
           transform="translate(386.2979,36.3012)">
          <path
             d="m 0,0 c -0.249,-1.647 -0.599,-3.201 -1.048,-4.662 -0.449,-1.46 -0.986,-2.758 -1.61,-3.894 -0.624,-1.136 -1.317,-2.028 -2.078,-2.677 -0.762,-0.65 -1.567,-0.974 -2.415,-0.974 -0.998,0 -1.773,0.418 -2.322,1.255 -0.549,0.836 -0.823,2.078 -0.823,3.725 0,1.672 0.118,3.339 0.356,4.999 0.236,1.66 0.58,3.22 1.029,4.681 0.449,1.46 0.979,2.752 1.592,3.875 0.611,1.123 1.297,2.009 2.058,2.658 0.762,0.649 1.567,0.973 2.415,0.973 0.675,0 1.248,-0.187 1.723,-0.561 C -0.649,9.023 -0.28,8.468 -0.019,7.732 0.244,6.995 0.375,6.078 0.375,4.98 0.375,3.307 0.25,1.647 0,0 M 85.569,20.106 H 69.02 L 54.38,2.696 h -0.337 c 0.225,0.574 0.479,1.341 0.768,2.303 0.286,0.96 0.58,1.99 0.879,3.088 0.299,1.099 0.549,2.11 0.748,3.034 l 5.206,24.824 H 47.153 L 43.991,20.806 c -0.306,0.018 -0.628,0.049 -0.917,0.049 -1.897,0 -3.589,-0.237 -5.074,-0.711 -1.485,-0.475 -2.84,-1.279 -4.062,-2.415 -1.223,-1.136 -2.421,-2.702 -3.595,-4.699 h -0.299 l 0.674,7.076 H 19.147 L 14.833,-0.348 c 0.213,1.597 0.332,3.22 0.332,4.878 0,3.47 -0.637,6.422 -1.91,8.856 -1.273,2.433 -3.126,4.287 -5.56,5.56 -2.434,1.273 -5.386,1.909 -8.855,1.909 -3.146,0 -5.986,-0.486 -8.519,-1.459 -2.533,-0.974 -4.761,-2.335 -6.683,-4.082 -1.922,-1.748 -3.533,-3.782 -4.83,-6.103 -1.298,-2.322 -2.272,-4.836 -2.92,-7.545 -0.65,-2.708 -0.974,-5.51 -0.974,-8.406 0,-3.47 0.636,-6.421 1.909,-8.855 1.274,-2.434 3.127,-4.288 5.561,-5.561 2.433,-1.273 5.385,-1.909 8.855,-1.909 3.145,0 5.985,0.487 8.518,1.46 2.533,0.974 4.762,2.334 6.683,4.082 1.922,1.747 3.533,3.781 4.831,6.103 1.036,1.853 1.856,3.836 2.479,5.936 l -3.551,-16.832 h 14.49 l 3.969,18.647 c 0.449,2.022 0.992,3.725 1.629,5.11 0.637,1.386 1.36,2.484 2.172,3.295 0.811,0.811 1.709,1.398 2.695,1.76 0.987,0.362 2.041,0.543 3.164,0.543 0.924,0 1.785,-0.081 2.584,-0.243 0.056,-0.012 0.1,-0.026 0.155,-0.038 l -6.073,-29.074 h 14.491 l 2.584,12.656 3.781,1.984 5.204,-14.64 h 16.4 L 67.185,0.936 Z"
             style="fill:#5a91ca;fill-opacity:1;fill-rule:nonzero;stroke:none"
             id="path52" />
        </g>
        <g
           id="g54"
           transform="translate(478.2324,42.7602)">
          <path
             d="m 0,0 c 0.623,1.311 1.409,2.402 2.358,3.276 0.949,0.873 1.985,1.31 3.109,1.31 1.097,0 1.896,-0.274 2.395,-0.823 C 8.361,3.213 8.611,2.54 8.611,1.741 8.611,0.867 8.337,-0.007 7.788,-0.88 7.238,-1.754 6.327,-2.478 5.055,-3.052 3.781,-3.626 2.059,-3.913 -0.112,-3.913 H -1.198 C -1.024,-2.615 -0.625,-1.311 0,0 m 3.481,-19.115 c -2.046,0 -3.582,0.449 -4.605,1.348 -1.023,0.899 -1.535,2.296 -1.535,4.194 v 0.318 0.28 h 2.21 c 3.943,0 7.35,0.369 10.221,1.105 2.871,0.737 5.236,1.791 7.095,3.164 1.86,1.373 3.239,3.015 4.138,4.924 0.898,1.91 1.348,4.037 1.348,6.384 0,3.569 -1.354,6.427 -4.063,8.574 -2.708,2.147 -6.446,3.22 -11.214,3.22 -4.118,0 -7.701,-0.749 -10.746,-2.246 -3.046,-1.498 -5.573,-3.532 -7.582,-6.103 -2.01,-2.571 -3.507,-5.48 -4.493,-8.724 -0.986,-3.245 -1.479,-6.603 -1.479,-10.073 0,-3.47 0.656,-6.459 1.966,-8.967 1.311,-2.509 3.213,-4.437 5.71,-5.785 2.495,-1.349 5.528,-2.022 9.099,-2.022 3.693,0 6.752,0.349 9.173,1.048 2.421,0.699 4.767,1.622 7.039,2.771 v 10.26 c -2.197,-1.149 -4.256,-2.047 -6.178,-2.697 -1.923,-0.649 -3.957,-0.973 -6.104,-0.973"
             style="fill:#5a91ca;fill-opacity:1;fill-rule:nonzero;stroke:none"
             id="path56" />
        </g>
        <g
           id="g58"
           transform="translate(548.9463,37.4618)">
          <path
             d="m 0,0 c -1.236,1.198 -2.815,2.271 -4.737,3.22 -1.173,0.599 -2.134,1.105 -2.883,1.516 -0.749,0.412 -1.292,0.818 -1.629,1.218 -0.337,0.399 -0.505,0.836 -0.505,1.31 0,0.848 0.255,1.485 0.768,1.909 0.51,0.425 1.204,0.637 2.078,0.637 1.471,0 3.1,-0.356 4.886,-1.067 1.784,-0.712 3.376,-1.53 4.774,-2.452 l 4.53,9.435 c -2.147,1.323 -4.381,2.315 -6.702,2.977 -2.321,0.661 -4.868,0.992 -7.639,0.992 -3.944,0 -7.208,-0.562 -9.791,-1.685 -0.852,-0.371 -1.625,-0.795 -2.332,-1.262 l 0.58,2.648 c -0.224,0.074 -0.643,0.143 -1.254,0.205 -0.612,0.062 -1.193,0.094 -1.741,0.094 -1.897,0 -3.589,-0.237 -5.074,-0.712 -1.485,-0.474 -2.84,-1.279 -4.062,-2.415 -1.223,-1.136 -2.421,-2.702 -3.595,-4.699 h -0.299 l 0.674,7.077 h -11.57 l -8.949,-42.423 h 14.491 l 3.968,18.647 c 0.45,2.022 0.992,3.726 1.629,5.111 0.637,1.385 1.361,2.483 2.172,3.295 0.811,0.811 1.709,1.398 2.695,1.759 0.987,0.362 2.041,0.543 3.164,0.543 0.672,0 1.299,-0.058 1.905,-0.143 0.05,-1.571 0.304,-2.995 0.784,-4.256 0.536,-1.411 1.366,-2.69 2.489,-3.838 1.124,-1.148 2.559,-2.209 4.307,-3.183 1.722,-0.949 2.995,-1.716 3.819,-2.302 0.823,-0.587 1.366,-1.112 1.628,-1.573 0.263,-0.462 0.394,-0.98 0.394,-1.554 0,-0.774 -0.3,-1.348 -0.899,-1.722 -0.599,-0.375 -1.299,-0.618 -2.096,-0.73 -0.8,-0.113 -1.499,-0.169 -2.097,-0.169 -2.023,0 -4.02,0.25 -5.991,0.749 -1.973,0.499 -4.107,1.373 -6.403,2.621 v -11.645 c 1.648,-0.774 3.576,-1.361 5.784,-1.759 2.209,-0.4 4.724,-0.6 7.545,-0.6 3.844,0 7.176,0.561 9.997,1.685 2.821,1.124 5.005,2.828 6.553,5.111 1.548,2.284 2.322,5.173 2.322,8.668 0,1.747 -0.306,3.345 -0.917,4.793 C 2.158,-2.521 1.235,-1.198 0,0"
             style="fill:#5a91ca;fill-opacity:1;fill-rule:nonzero;stroke:none"
             id="path60" />
        </g>
      </g>
    </g>
  </g>
</svg>
