<svg width="15" height="13" viewBox="0 0 15 13" fill="none" xmlns="http://www.w3.org/2000/svg">
<path fill-rule="evenodd" clip-rule="evenodd" d="M14.2736 5.74032C14.0416 9.37243 11.012 12.2469 7.30781 12.2469C3.60375 12.2469 0.574035 9.37243 0.341985 5.74032C0.33288 5.71581 0.327165 5.68962 0.327165 5.66194V0.25779C0.327165 0.132353 0.429615 0.030745 0.55605 0.030745H14.0597C14.1861 0.030745 14.2885 0.132353 14.2885 0.25779V5.66194C14.2885 5.68962 14.2828 5.71581 14.2736 5.74032ZM11.2766 3.87573C10.9291 3.51144 10.3496 3.49557 9.98234 3.84033L7.27599 6.38109L4.63816 3.76415C4.28064 3.40943 3.70096 3.40943 3.34344 3.76415C2.98592 4.11883 2.98592 4.69394 3.34344 5.04861L6.58025 8.2598C6.75033 8.4286 6.97076 8.51613 7.19364 8.52422C7.44945 8.5501 7.71461 8.47021 7.91603 8.28117L11.2409 5.15979C11.6081 4.81499 11.6242 4.24016 11.2766 3.87573Z" fill="#5991CB"/>
</svg>
