<svg width="22" height="22" viewBox="0 0 22 22" fill="none" xmlns="http://www.w3.org/2000/svg">
<g clip-path="url(#clip0_0_14)">
<path fill-rule="evenodd" clip-rule="evenodd" d="M10.9998 -8.8e-05C17.0749 -8.8e-05 21.9998 4.92466 21.9998 10.9998C21.9998 17.075 17.0749 21.9999 10.9998 21.9999C4.9247 21.9999 -0.000132 17.075 -0.000132 10.9998C-0.000132 4.92466 4.9247 -8.8e-05 10.9998 -8.8e-05Z" fill="#43CB83"/>
<path fill-rule="evenodd" clip-rule="evenodd" d="M9.4283 14.6441L6.31703 11.4744C5.88745 11.0366 5.88745 10.3274 6.31703 9.88959C6.74659 9.45216 7.44308 9.45216 7.87274 9.88959L10.2061 12.2666L14.0952 8.30474C14.5249 7.86691 15.2214 7.86691 15.6508 8.30474C16.0806 8.74265 16.0806 9.45216 15.6508 9.88959L10.9839 14.6441C10.5543 15.0819 9.85798 15.0819 9.4283 14.6441Z" fill="white"/>
</g>
<defs>
<clipPath id="clip0_0_14">
<rect width="22" height="22" fill="white"/>
</clipPath>
</defs>
</svg>
