<svg width="19" height="14" viewBox="0 0 19 14" fill="none" xmlns="http://www.w3.org/2000/svg">
<path fill-rule="evenodd" clip-rule="evenodd" d="M9.77109 0.552762H5.40235L1.74771 5.84569C1.07555 6.81187 0.61351 7.90408 0.61351 9.20627C0.61351 11.9788 2.62983 13.449 4.89824 13.449C7.41874 13.449 9.22503 11.6847 9.22503 9.16429C9.22503 7.86204 8.72092 6.64383 7.58672 5.88773L9.77109 0.552762ZM18.9288 0.552762H14.56L10.9053 5.84569C10.2332 6.81187 9.77109 7.90408 9.77109 9.20627C9.77109 11.9788 11.7875 13.449 14.0559 13.449C16.5763 13.449 18.3827 11.6847 18.3827 9.16429C18.3827 7.86204 17.8786 6.64383 16.7444 5.88773L18.9288 0.552762Z" fill="#161616"/>
</svg>
