<svg width="15" height="13" viewBox="0 0 15 13" fill="none" xmlns="http://www.w3.org/2000/svg">
<path fill-rule="evenodd" clip-rule="evenodd" d="M0.63471 6.53749C0.866775 2.90536 3.89643 0.030888 7.60057 0.030888C11.3046 0.030888 14.3344 2.90536 14.5664 6.53749C14.5755 6.56201 14.5812 6.58821 14.5812 6.61587V12.02C14.5812 12.1455 14.4787 12.2471 14.3523 12.2471H0.848715C0.72231 12.2471 0.61986 12.1455 0.61986 12.02V6.61587C0.61986 6.58821 0.62562 6.56201 0.63471 6.53749ZM3.63176 8.40207C3.97929 8.76637 4.55874 8.78225 4.92603 8.43749L7.63237 5.89674L10.2702 8.51365C10.6277 8.86838 11.2074 8.86838 11.5649 8.51365C11.9225 8.159 11.9225 7.58384 11.5649 7.2292L8.32812 4.018C8.15804 3.84922 7.93761 3.76169 7.71474 3.75357C7.45894 3.72771 7.19374 3.80757 6.99235 3.99664L3.6675 7.11803C3.30024 7.46284 3.28421 8.03767 3.63176 8.40207Z" fill="#EB1762"/>
</svg>
