<svg width="18" height="12" viewBox="0 0 18 12" fill="none" xmlns="http://www.w3.org/2000/svg">
<path fill-rule="evenodd" clip-rule="evenodd" d="M10.5653 6.25295L16.7537 1.0606C17.0524 0.761796 17.2003 0.386424 17.2704 -8.4e-05H9.00581H1.02191C1.08983 0.397068 1.23329 0.782772 1.52284 1.08978L7.49335 6.42504C7.90808 6.86482 8.4634 7.16702 9.00581 7.12494C9.56507 7.16598 10.1378 6.68095 10.5653 6.25295ZM2.01031 11.9999H16.0012C17.1051 11.9999 17.9999 11.1045 17.9999 9.99991V2.99992C17.9999 2.32711 17.9941 0.851604 17.6252 0.374916C17.5385 0.62388 16.9536 1.86062 16.7537 2.06056L10.5653 7.25302C10.1378 7.6809 9.56507 7.91592 9.00581 7.87494C8.4634 7.91705 7.90808 7.86482 7.49335 7.42511L1.52284 2.08981C1.29202 1.84501 0.467316 0.685596 0.38637 0.374916C-0.0280562 0.606769 -0.00722164 1.80571 0.00707162 2.62822C0.00943958 2.76449 0.011628 2.89042 0.011628 2.99992V9.99991C0.011628 11.1045 0.906498 11.9999 2.01031 11.9999Z" fill="white"/>
</svg>
