<svg width="22" height="23" viewBox="0 0 22 23" fill="none" xmlns="http://www.w3.org/2000/svg">
<g clip-path="url(#clip0_0_27)">
<path fill-rule="evenodd" clip-rule="evenodd" d="M10.9999 0.785864C17.075 0.785864 21.9999 5.74367 21.9999 11.8595C21.9999 17.9753 17.075 22.933 10.9999 22.933C4.92477 22.933 -0.00011 17.9753 -0.00011 11.8595C-0.00011 5.74367 4.92477 0.785864 10.9999 0.785864Z" fill="#E21E1E"/>
<path fill-rule="evenodd" clip-rule="evenodd" d="M9.58565 11.8594L7.05013 14.4119C6.65961 14.8051 6.65961 15.4425 7.05013 15.8356C7.44065 16.2288 8.07379 16.2288 8.4643 15.8356L10.9999 13.2831L13.5354 15.8356C13.926 16.2288 14.5591 16.2288 14.9496 15.8356C15.3401 15.4425 15.3401 14.8051 14.9496 14.4119L12.4141 11.8594L14.9496 9.30694C15.3401 8.9138 15.3401 8.27643 14.9496 7.88324C14.5591 7.49011 13.926 7.49011 13.5354 7.88324L10.9999 10.4358L8.4643 7.88324C8.07379 7.49011 7.44065 7.49011 7.05013 7.88324C6.65961 8.27643 6.65961 8.9138 7.05013 9.30694L9.58565 11.8594Z" fill="white"/>
</g>
<defs>
<clipPath id="clip0_0_27">
<rect width="22" height="23" fill="white"/>
</clipPath>
</defs>
</svg>
