<svg width="15" height="18" viewBox="0 0 15 18" fill="none" xmlns="http://www.w3.org/2000/svg">
<path fill-rule="evenodd" clip-rule="evenodd" d="M12.9998 17.9999H1.99992C0.89535 17.9999 -0.00012 17.1045 -0.00012 15.9999V7.99996C-0.00012 6.89535 0.89535 5.99996 1.99992 5.99996H2.99987V4.99999C2.99987 2.23855 5.0146 -7.2e-05 7.49988 -7.2e-05C9.98518 -7.2e-05 11.9999 2.23855 11.9999 4.99999V5.99996H12.9998C14.1044 5.99996 14.9999 6.89535 14.9999 7.99996V15.9999C14.9999 17.1045 14.1044 17.9999 12.9998 17.9999ZM6.74988 12.3091V13.25C6.74988 13.6642 7.08567 14 7.49988 14C7.91412 14 8.24991 13.6642 8.24991 13.25V12.3091C8.689 12.1308 8.99985 11.703 8.99985 11.1999C8.99985 10.5372 8.46261 9.99997 7.79988 9.99997H7.19989C6.53716 9.99997 5.99996 10.5372 5.99996 11.1999C5.99996 11.703 6.31077 12.1308 6.74988 12.3091ZM9.99986 5.12492C9.99986 3.39905 8.8806 1.99994 7.49988 1.99994C6.11917 1.99994 4.99992 3.39905 4.99992 5.12492V5.99996H9.99986V5.12492Z" fill="#43CB83"/>
</svg>
