<?xml version="1.0" encoding="utf-8"?>
<!-- Generator: Adobe Illustrator 27.4.1, SVG Export Plug-In . SVG Version: 6.00 Build 0)  -->
<svg version="1.1" id="Layer_1" xmlns="http://www.w3.org/2000/svg" xmlns:xlink="http://www.w3.org/1999/xlink" x="0px" y="0px"
	 viewBox="0 0 40 40" style="enable-background:new 0 0 40 40;" xml:space="preserve">
<style type="text/css">
	.st0{fill:#43CB83;}
</style>
<path class="st0" d="M20,35.8c-2.2,0-4.3-0.4-6.2-1.2c-1.9-0.8-3.6-1.9-5-3.4c-1.4-1.4-2.6-3.1-3.4-5c-0.8-1.9-1.2-4-1.2-6.2
	c0-2.2,0.4-4.3,1.2-6.2c0.8-1.9,1.9-3.6,3.4-5c1.4-1.4,3.1-2.6,5-3.4c1.9-0.8,4-1.2,6.2-1.2c1.6,0,3.1,0.2,4.5,0.7
	c1.5,0.4,2.8,1.1,4.1,1.9c0.3,0.2,0.4,0.4,0.5,0.7c0.1,0.3,0,0.5-0.2,0.8s-0.4,0.4-0.7,0.4c-0.3,0-0.6,0-0.8-0.2
	c-1.1-0.7-2.3-1.2-3.6-1.6c-1.3-0.4-2.6-0.5-3.9-0.5c-3.9,0-7.1,1.3-9.8,4s-4,5.9-4,9.8s1.3,7.1,4,9.8s5.9,4,9.8,4s7.1-1.3,9.8-4
	s4-5.9,4-9.8c0-0.5,0-0.9-0.1-1.4c0-0.4-0.1-0.9-0.2-1.3c-0.1-0.3,0-0.6,0.1-0.9c0.1-0.3,0.4-0.4,0.7-0.5c0.3-0.1,0.6,0,0.8,0.2
	c0.2,0.2,0.4,0.4,0.5,0.7c0.1,0.5,0.2,1,0.2,1.5c0.1,0.5,0.1,1.1,0.1,1.6c0,2.2-0.4,4.3-1.2,6.2c-0.8,1.9-1.9,3.6-3.4,5
	c-1.4,1.4-3.1,2.6-5,3.4C24.3,35.4,22.2,35.8,20,35.8z M17.6,24l16-16c0.2-0.2,0.4-0.3,0.7-0.3c0.3,0,0.6,0.1,0.8,0.3
	c0.2,0.2,0.3,0.5,0.3,0.8c0,0.3-0.1,0.6-0.3,0.8L18.5,26.1c-0.3,0.3-0.6,0.4-0.9,0.4c-0.3,0-0.7-0.1-0.9-0.4l-4.7-4.7
	c-0.2-0.2-0.3-0.5-0.3-0.8c0-0.3,0.1-0.6,0.3-0.8c0.2-0.2,0.5-0.3,0.8-0.3c0.3,0,0.6,0.1,0.8,0.3C13.5,19.8,17.6,24,17.6,24z"/>
</svg>
