<svg fill='white' xmlns="http://www.w3.org/2000/svg" height="40" viewBox="0 -960 960 960" width="40"><path d="M100.001-425.538v-216.769q0-25.436 18.564-43.999 18.564-18.564 44-18.564h182.308v-72.974q0-25.435 18.388-43.999 18.388-18.564 44.176-18.564h145.126q25.436 0 44 18.564t18.564 43.999v72.974h182.308q25.788 0 44.176 18.564 18.388 18.563 18.388 43.999v216.769H565.793v-28.974q0-13.39-8.954-22.336-8.954-8.945-22.358-8.945H426.155q-13.154 0-22.141 8.945-8.987 8.946-8.987 22.336v28.974H100.001ZM395.128-704.87h169.744v-72.974q0-4.616-3.847-8.462-3.846-3.846-8.462-3.846H407.437q-4.616 0-8.462 3.846-3.847 3.846-3.847 8.462v72.974Zm50.154 339.588v-70.256h70.256v70.256h-70.256Zm-282.717 224.87q-25.436 0-44-18.721t-18.564-43.842v-172.308h295.026v28.974q0 13.141 9.079 22.211 9.08 9.071 22.234 9.071h108.325q13.404 0 22.266-9.071 8.862-9.07 8.862-22.211v-28.974h294.206v172.308q0 25.121-18.388 43.842t-44.176 18.721h-634.87Z"/></svg>