<svg fill='white' xmlns="http://www.w3.org/2000/svg" height="40" viewBox="0 -960 960 960" width="40"><path d="M259.668-332.77h299.896v-13.897q0-53.974-54.192-70.038t-95.756-16.064q-41.564 0-95.756 16.064t-54.192 70.038v13.897Zm149.948-159.743q29.974 0 49.987-20.013 20.012-20.013 20.012-49.987t-20.012-49.986q-20.013-20.013-49.987-20.013t-49.987 20.013q-20.012 20.012-20.012 49.986 0 29.974 20.012 49.987 20.013 20.013 49.987 20.013ZM172.181-180.001q-25.846 0-44.205-18.359-18.358-18.359-18.358-44.205v-474.87q0-25.846 18.358-44.205 18.359-18.359 44.205-18.359h474.87q25.846 0 44.205 18.359 18.359 18.359 18.359 44.205v200L822.87-630.69q7.948-7.949 17.73-3.782t9.782 15.115v278.714q0 10.948-9.782 15.115t-17.73-3.782L709.615-442.822v200.257q0 25.846-18.359 44.205-18.359 18.359-44.205 18.359h-474.87Z"/></svg>